<svg
    xmlns="http://www.w3.org/2000/svg"
    xmlns:xlink="http://www.w3.org/1999/xlink"
    xmlns:a="http://ns.adobe.com/AdobeSVGViewerExtensions/3.0/"
    version="1.1"
    x="0px"
    y="0px"
    width="600px"
    height="600px"
    viewBox="-0.605 -0.562 600 600"
    enable-background="new -0.605 -0.562 600 600"
    xml:space="preserve"
    style="width: 45px;height: 45px;"
>
    <defs></defs>
    <rect display="none" fill="#FFFFFF" width="600" height="600.001"/>
    <path fill="#4E4E4F" d="M151.729,253.548l10.664,72.179h0.292l7.307-72.179h26.302l-17.827,104.326H148.66l-9.06-70.133h-0.292  l-9.06,70.133h-29.806L82.616,253.548h26.299l8.183,72.179h0.292l9.79-72.179H151.729z"/>
    <path
        fill="#4E4E4F"
        d="M201.554,280.803c1.263-6.872,3.36-12.477,6.283-16.809c2.923-4.331,6.767-7.493,11.543-9.494  c4.77-1.993,10.615-2.997,17.531-2.997s12.762,1.004,17.535,2.997c4.77,2.001,8.621,5.163,11.544,9.494  c2.922,4.332,5.013,9.937,6.283,16.809c1.263,6.863,1.896,15.167,1.896,24.907c0,9.742-0.634,18.046-1.896,24.918  c-1.27,6.863-3.36,12.468-6.283,16.8c-2.923,4.331-6.774,7.426-11.544,9.276c-4.773,1.852-10.619,2.773-17.535,2.773  s-12.761-0.922-17.531-2.773c-4.776-1.851-8.621-4.945-11.543-9.276c-2.923-4.332-5.021-9.937-6.283-16.8  c-1.267-6.872-1.899-15.176-1.899-24.918C199.654,295.97,200.287,287.666,201.554,280.803z M227.998,323.172  c0.195,4.63,0.607,8.301,1.244,11.03c0.633,2.728,1.555,4.63,2.776,5.701c1.218,1.071,2.848,1.605,4.894,1.605  s3.675-0.534,4.897-1.605c1.214-1.071,2.139-2.974,2.776-5.701c0.63-2.729,1.045-6.4,1.24-11.03  c0.195-4.624,0.292-10.446,0.292-17.462c0-7.014-0.097-12.836-0.292-17.459c-0.195-4.624-0.61-8.304-1.24-11.031  c-0.637-2.728-1.562-4.623-2.776-5.701c-1.222-1.065-2.852-1.605-4.897-1.605s-3.675,0.54-4.894,1.605  c-1.221,1.078-2.143,2.974-2.776,5.701c-0.637,2.728-1.049,6.407-1.244,11.031c-0.194,4.623-0.292,10.445-0.292,17.459  C227.706,312.726,227.804,318.548,227.998,323.172z"/>
    <path
        fill="#4E4E4F"
        d="M326.472,253.548c5.169,0,9.576,0.683,13.232,2.046c3.643,1.364,6.61,3.289,8.903,5.77  c2.292,2.489,3.956,5.433,4.976,8.843c1.019,3.409,1.528,7.111,1.528,11.105c0,7.014-1.409,12.664-4.242,16.95  c-2.816,4.286-7.343,6.917-13.577,7.891v0.293c6.52,0.577,11,2.869,13.442,6.864c2.428,3.993,3.643,9.494,3.643,16.508v8.917  c0,1.365,0,2.774,0,4.234c0,1.461,0.059,2.848,0.149,4.166c0.105,1.312,0.241,2.511,0.435,3.583c0.194,1.071,0.449,1.896,0.734,2.48  c0.391,0.584,0.78,1.146,1.169,1.678c0.39,0.54,1.019,1.05,1.904,1.537v1.461h-28.941c-0.673-1.364-1.183-2.968-1.528-4.819  c-0.344-1.85-0.584-3.702-0.733-5.552c-0.136-1.852-0.241-3.635-0.285-5.335c-0.045-1.702-0.075-3.096-0.075-4.167v-7.014  c0-2.923-0.149-5.352-0.435-7.307c-0.299-1.948-0.809-3.477-1.544-4.602c-0.719-1.115-1.648-1.896-2.772-2.339  c-1.124-0.435-2.503-0.659-4.167-0.659h-7.148v41.793H283.96V253.548H326.472z M316.535,297.678c3.896,0,6.775-1.146,8.633-3.439  c1.844-2.286,2.772-5.282,2.772-8.984c0-4.385-0.899-7.502-2.713-9.353c-1.798-1.844-4.735-2.773-8.827-2.773h-5.261v24.55H316.535z  "/>
    <path fill="#4E4E4F" d="M393.973,253.548v40.038h0.299l20.159-40.038h28.94l-26.303,45.592l29.51,58.734h-30.979l-15.917-36.383  l-5.709,8.769v27.614h-27.172V253.548H393.973z"/>
    <path
        fill="#4E4E4F"
        d="M489.681,281.162c0-3.117-0.63-5.77-1.904-7.966c-1.258-2.188-3.206-3.283-5.845-3.283  c-2.922,0-5.064,0.944-6.429,2.849c-1.363,1.903-2.038,4.018-2.038,6.354c0,3.409,1.094,6.115,3.281,8.107  c2.189,2.001,4.947,3.732,8.259,5.193c3.312,1.462,6.863,2.945,10.67,4.452c3.793,1.513,7.344,3.483,10.657,5.919  c3.312,2.437,6.069,5.629,8.257,9.569c2.203,3.948,3.297,9.082,3.297,15.414c0,11.106-3.176,19.169-9.502,24.182  c-6.338,5.021-15.48,7.524-27.471,7.524c-5.651,0-10.641-0.457-14.972-1.387c-4.347-0.922-7.989-2.533-10.955-4.818  c-2.984-2.286-5.246-5.282-6.806-8.984c-1.559-3.701-2.337-8.28-2.337-13.735v-3.657h26.303v2.487c0,4.481,0.823,7.621,2.486,9.419  c1.65,1.807,3.793,2.707,6.43,2.707c2.818,0,4.991-0.975,6.506-2.924c1.498-1.948,2.262-4.33,2.262-7.156  c0-3.409-1.049-6.114-3.147-8.107c-2.099-2.002-4.721-3.702-7.883-5.119c-3.178-1.409-6.609-2.847-10.311-4.309  c-3.702-1.461-7.135-3.364-10.297-5.703c-3.162-2.329-5.8-5.402-7.883-9.201c-2.099-3.8-3.147-8.768-3.147-14.905  c0-10.61,2.818-18.695,8.467-24.249c5.65-5.552,14.223-8.332,25.719-8.332c11.885,0,20.487,2.562,25.793,7.673  c5.305,5.111,7.957,13.271,7.957,24.474h-25.417V281.162z"/>
    <path fill="#4E4E4F" d="M205.499,204.803l39.505-55.654h2.904v56.119h14.291v2.323h-14.291v20.569h-2.323v-20.569h-40.087V204.803z   M245.354,152.408l-37.528,52.859h37.761v-52.859H245.354z"/>
    <path
        fill="#4E4E4F"
        d="M326.846,203.409c-0.959,4.878-2.608,9.262-4.932,13.129c-2.322,3.874-5.38,6.991-9.187,9.352  c-3.784,2.368-8.55,3.545-14.279,3.545c-5.658,0-10.401-1.177-14.234-3.545c-3.833-2.36-6.913-5.478-9.236-9.352  c-2.323-3.867-3.971-8.251-4.938-13.129c-0.97-4.878-1.454-9.794-1.454-14.755c0-4.953,0.483-9.876,1.454-14.755  c0.967-4.878,2.615-9.254,4.938-13.129c2.324-3.874,5.403-7.006,9.236-9.412c3.833-2.397,8.576-3.604,14.234-3.604  c5.729,0,10.495,1.206,14.279,3.604c3.807,2.406,6.864,5.538,9.187,9.412c2.323,3.875,3.973,8.251,4.932,13.129  c0.975,4.879,1.453,9.802,1.453,14.755C328.299,193.615,327.821,198.531,326.846,203.409z M324.703,175.182  c-0.854-4.571-2.323-8.716-4.421-12.433c-2.083-3.725-4.901-6.759-8.423-9.127c-3.521-2.36-7.988-3.537-13.41-3.537  c-5.425,0-9.895,1.177-13.421,3.537c-3.525,2.368-6.332,5.402-8.423,9.127c-2.09,3.717-3.563,7.861-4.414,12.433  c-0.854,4.57-1.281,9.059-1.281,13.473s0.427,8.91,1.281,13.481c0.851,4.57,2.323,8.715,4.414,12.432  c2.091,3.717,4.897,6.759,8.423,9.119c3.526,2.36,7.996,3.545,13.421,3.545c5.422,0,9.889-1.185,13.41-3.545s6.34-5.402,8.423-9.119  c2.098-3.717,3.566-7.861,4.421-12.432c0.855-4.571,1.274-9.067,1.274-13.481S325.558,179.752,324.703,175.182z"/>
    <path fill="#4E4E4F" d="M334.7,204.803l39.505-55.654h2.894v56.119h14.297v2.323h-14.297v20.569h-2.323v-20.569H334.7V204.803z   M374.55,152.408l-37.527,52.859h37.752v-52.859H374.55z"/>
    <polygon fill="#4E4E4F" points="82.114,207.351 82.114,205.425 169.395,205.425 169.395,207.351 82.114,207.351 "/>
    <polygon fill="#4E4E4F" points="430.288,207.344 430.288,205.433 517.573,205.433 517.573,207.344 430.288,207.344 "/>
    <text transform="matrix(1 0 0 1 99.9141 413.9971)">
        <tspan x="0" y="0" fill="#666666" font-family="'Raleway-Light'" font-size="31.9964">TROUVEZ LES MEILLEURS</tspan>
        <tspan x="97.652" y="38.396" fill="#666666" font-family="'Raleway-Light'" font-size="31.9964">FREELANCES</tspan>
    </text>
    <wappalyzerData id="wappalyzerData" style="display: none"/><script id="wappalyzerEnvDetection" src="chrome-extension://gppongmhjkpfnbhagpmjfkannfbllamg/js/inject.js"/>
</svg>
