<?xml version="1.0" standalone="no"?>
<!DOCTYPE svg PUBLIC "-//W3C//DTD SVG 20010904//EN"
 "http://www.w3.org/TR/2001/REC-SVG-20010904/DTD/svg10.dtd">
<svg version="1.0" xmlns="http://www.w3.org/2000/svg"
 width="700.000000pt" height="700.000000pt" viewBox="0 0 700.000000 700.000000"
 preserveAspectRatio="xMidYMid meet">
<metadata>
Created by potrace 1.11, written by Peter Selinger 2001-2013
</metadata>
<g transform="translate(0.000000,700.000000) scale(0.100000,-0.100000)"
fill="#000000" stroke="none">
<path d="M4387 6916 c-9 -21 -17 -42 -17 -46 0 -4 -7 -14 -17 -21 -13 -11 -17
-11 -20 -1 -9 24 -23 12 -17 -14 5 -19 4 -25 -5 -20 -6 4 -11 15 -11 24 0 9
-7 26 -15 36 -14 19 -15 18 -15 -13 0 -40 -25 -71 -33 -41 -9 34 -26 22 -23
-15 3 -39 -12 -59 -38 -49 -9 3 -16 1 -16 -5 0 -6 5 -11 10 -11 6 0 10 -5 10
-11 0 -7 -7 -8 -17 -4 -34 14 -63 17 -63 7 0 -6 8 -13 18 -16 9 -3 -3 -3 -28
-1 -46 5 -134 -18 -109 -28 9 -3 9 -6 2 -6 -6 -1 -15 4 -18 9 -12 19 -52 10
-69 -15 -9 -14 -14 -29 -11 -34 2 -5 -6 -12 -20 -15 -14 -4 -25 -11 -25 -16 0
-6 -6 -10 -12 -10 -7 0 -18 -10 -24 -23 -6 -12 -32 -62 -58 -111 -25 -50 -46
-95 -46 -102 0 -6 -7 -17 -15 -24 -10 -9 -12 -17 -6 -23 13 -13 -4 -49 -56
-120 -49 -67 -53 -89 -19 -105 18 -8 25 -21 30 -61 5 -39 3 -55 -8 -66 -22
-23 -53 -77 -60 -107 -7 -31 9 -39 19 -9 3 11 26 38 50 60 48 45 54 54 28 44
-12 -5 -15 -2 -10 10 3 8 9 32 13 51 6 33 24 51 24 25 0 -6 7 -9 15 -5 14 5
21 -22 15 -63 -1 -8 4 -12 13 -8 9 3 14 -1 13 -11 -1 -12 6 -16 21 -15 16 2
21 -2 17 -12 -4 -8 -2 -15 4 -15 5 0 9 -17 8 -37 -1 -32 2 -37 18 -35 15 3 18
-1 13 -17 -3 -11 1 -25 9 -32 16 -13 19 -44 4 -34 -5 3 -10 2 -10 -4 0 -17 20
-23 35 -11 8 6 19 9 24 5 6 -3 20 4 31 15 12 12 25 19 28 15 4 -4 -1 -11 -11
-16 -9 -6 -17 -20 -17 -32 0 -20 5 -22 51 -20 29 1 57 7 62 12 6 6 18 11 26
11 12 -1 10 -6 -8 -21 -29 -24 -20 -37 14 -21 14 7 30 12 36 12 18 0 -1 -19
-37 -36 -24 -11 -32 -20 -25 -27 7 -7 15 -6 26 3 8 7 18 11 21 8 2 -3 -16 -22
-41 -43 -41 -35 -43 -39 -27 -50 9 -7 36 -16 60 -20 26 -4 42 -12 42 -21 0
-16 9 -18 30 -4 9 6 17 5 22 -3 6 -9 10 -9 17 2 7 11 11 10 19 -5 8 -15 14
-16 23 -7 6 6 18 9 25 6 8 -3 21 0 29 7 12 10 15 9 15 -4 0 -12 6 -15 24 -10
15 3 29 -1 41 -13 13 -13 20 -14 23 -5 6 20 22 3 22 -24 0 -14 6 -24 15 -24 8
0 12 -6 9 -14 -3 -8 -1 -23 5 -34 6 -11 7 -23 3 -26 -4 -4 -12 -32 -18 -62 -8
-41 -8 -59 1 -70 6 -9 10 -31 9 -49 -2 -22 3 -38 17 -50 10 -10 19 -27 19 -38
0 -20 -61 -120 -80 -132 -6 -4 -8 -11 -5 -16 8 -12 -27 -11 -61 2 -16 5 -60
31 -99 58 -131 88 -282 140 -455 156 -36 3 -123 15 -194 27 -113 18 -135 19
-180 8 -48 -12 -84 -28 -96 -41 -3 -3 -16 -13 -30 -23 -24 -18 -24 -18 -2 -13
14 3 22 1 22 -8 0 -9 -10 -13 -27 -12 -28 3 -53 -26 -53 -60 0 -8 -4 -12 -8
-9 -5 3 -20 -1 -33 -8 -39 -20 -77 -27 -84 -16 -11 19 -62 11 -77 -11 -10 -16
-30 -24 -76 -30 -73 -10 -176 -43 -212 -68 -14 -10 -47 -21 -73 -25 -78 -12
-159 -44 -194 -77 -35 -34 -35 -34 -151 -3 -60 16 -70 16 -237 -4 -171 -20
-176 -21 -265 -67 -50 -26 -94 -45 -97 -42 -3 4 -15 -11 -25 -33 -11 -22 -34
-55 -51 -74 -35 -38 -122 -86 -156 -86 -26 0 -27 -14 -3 -39 38 -43 43 -52 37
-72 -5 -15 -12 -18 -28 -14 -17 5 -19 4 -7 -4 29 -20 0 -23 -37 -3 -21 11 -55
29 -76 39 -22 11 -35 23 -32 31 3 7 1 11 -4 8 -4 -3 -30 2 -58 11 -45 14 -52
14 -84 -1 -35 -16 -77 -65 -46 -53 9 3 19 -4 26 -19 9 -20 8 -28 -4 -41 -9 -8
-19 -12 -23 -8 -4 4 -1 10 6 12 6 3 12 11 12 19 0 9 -5 12 -12 8 -7 -4 -8 -3
-4 4 4 7 6 12 4 13 -2 0 -45 6 -96 13 l-94 12 -9 -23 c-9 -24 -27 -32 -26 -10
0 6 -3 27 -8 45 -6 26 -12 32 -34 32 -55 0 -311 34 -311 42 0 4 -36 8 -80 8
-64 0 -80 3 -80 15 0 8 -9 15 -20 15 -11 0 -20 -4 -20 -10 0 -5 -9 -10 -20
-10 -11 0 -20 5 -20 10 0 6 -18 10 -40 10 -22 0 -40 -4 -40 -10 0 -5 -18 -10
-40 -10 -22 0 -40 5 -40 10 0 7 -29 10 -77 8 l-78 -3 -3 -127 -3 -128 68 -2
c37 0 93 0 123 1 31 2 98 -4 150 -13 81 -13 259 -22 364 -17 17 1 38 8 47 17
15 13 17 13 22 -1 10 -24 131 -21 149 4 16 22 36 27 61 16 10 -4 23 -2 31 5
11 8 20 9 36 0 11 -6 26 -8 32 -4 6 4 17 -1 25 -11 7 -11 13 -13 13 -6 0 17
28 43 34 32 4 -5 0 -11 -6 -14 -7 -2 -10 -8 -6 -12 4 -4 14 -2 22 4 11 9 16 9
21 0 5 -6 -17 -35 -54 -69 -33 -32 -66 -71 -72 -87 -19 -50 -13 -100 19 -141
36 -47 72 -146 72 -200 0 -33 -5 -44 -29 -61 -16 -12 -37 -21 -46 -21 -17 0
-139 -95 -185 -144 -14 -14 -30 -26 -36 -26 -20 0 -73 -72 -87 -117 -1 -4 -26
-8 -56 -9 -46 -2 -57 -6 -82 -34 -25 -27 -28 -35 -17 -48 12 -14 9 -15 -23 -9
-41 6 -59 -6 -59 -38 0 -14 -12 -28 -33 -40 -19 -10 -39 -31 -44 -46 -6 -16
-18 -29 -27 -29 -9 0 -16 -4 -16 -10 0 -5 0 -13 -1 -17 0 -5 -11 -14 -25 -21
-13 -7 -24 -22 -24 -33 0 -11 -7 -27 -15 -35 -9 -10 -15 -35 -15 -67 0 -43 -5
-58 -30 -87 -17 -19 -33 -43 -36 -52 -3 -10 -10 -18 -15 -18 -5 0 -9 -4 -9
-10 0 -5 -18 -39 -40 -75 -22 -36 -40 -70 -40 -75 0 -6 -9 -27 -20 -47 -11
-21 -20 -54 -20 -74 0 -32 5 -39 48 -66 26 -17 62 -38 81 -48 19 -9 52 -30 73
-45 l39 -28 -31 -7 c-16 -4 -30 -11 -30 -16 0 -9 -38 -27 -73 -34 -9 -2 -21
-6 -26 -10 -22 -13 -63 16 -79 55 -11 30 -19 39 -31 34 -9 -3 -33 -8 -54 -11
l-37 -6 0 -1168 0 -1169 2355 0 c1295 0 2355 1 2355 3 0 1 -11 38 -25 82 -46
143 -167 653 -195 820 -6 39 -25 127 -41 196 -35 150 -48 247 -49 351 0 85 5
108 26 108 7 0 29 13 47 30 52 46 137 63 261 55 101 -7 116 -9 301 -39 55 -9
129 -20 164 -25 87 -13 100 -28 105 -121 3 -41 11 -102 20 -135 21 -83 21
-233 0 -256 -11 -13 -13 -22 -6 -36 6 -10 7 -38 3 -65 -4 -26 -4 -53 0 -60 14
-21 11 -68 -3 -64 -7 1 -10 1 -5 -1 19 -11 -6 -103 -27 -103 -6 0 0 -9 12 -20
24 -23 27 -35 12 -45 -5 -3 -10 -16 -10 -29 0 -12 -3 -26 -7 -29 -9 -10 -10
-66 0 -60 4 2 6 -18 5 -47 -2 -31 -9 -55 -18 -60 -20 -13 -20 -201 0 -225 9
-11 10 -19 3 -23 -14 -10 -7 -112 13 -184 5 -15 17 -18 80 -18 l74 0 0 45 c0
39 2 44 23 43 29 -1 67 12 67 23 0 5 -3 9 -7 10 -5 0 -18 2 -30 3 -12 1 -24
-3 -27 -11 -9 -24 -23 -14 -24 18 0 17 -4 44 -7 61 -7 28 -5 30 22 27 15 -1
39 1 52 5 18 6 26 4 33 -8 11 -20 56 -21 78 -1 12 11 24 13 41 6 14 -5 34 -5
48 1 23 8 222 4 238 -5 13 -8 53 12 53 25 0 14 -48 17 -69 4 -17 -11 -27 2
-14 15 16 16 132 22 149 8 11 -9 11 -15 -2 -34 -16 -24 -16 -24 20 -18 22 3
42 1 51 -7 12 -10 15 -10 15 2 0 8 6 23 14 33 11 15 17 17 28 8 9 -8 19 -9 28
-3 8 6 27 10 43 10 15 0 27 4 27 8 0 5 24 14 53 21 87 21 117 32 112 41 -7 12
-83 21 -210 24 -60 2 -118 7 -128 11 -29 12 -13 29 39 42 57 13 77 11 -206 19
-102 3 -194 6 -205 9 -11 2 -32 4 -47 4 -17 1 -28 7 -28 15 0 12 -7 12 -35 5
-49 -14 -195 -17 -196 -4 -1 9 -1 93 1 176 0 38 23 56 51 38 9 -5 21 2 38 22
13 16 30 29 37 29 18 0 84 32 84 41 0 4 -16 9 -35 11 -28 3 -34 1 -30 -11 3
-8 0 -18 -7 -23 -21 -13 -28 -9 -28 12 0 12 -7 20 -17 20 -14 0 -15 -2 -4 -9
17 -11 5 -32 -14 -25 -8 4 -12 10 -9 15 3 5 0 9 -5 9 -10 0 -12 -6 -15 -42 -1
-7 7 -12 17 -10 9 2 17 -2 17 -7 0 -17 -18 -22 -43 -10 -18 8 -26 21 -30 51
-8 58 -2 66 46 64 23 -1 75 -3 114 -4 72 -2 72 -2 63 -26 -7 -20 -5 -25 13
-29 12 -3 36 -4 52 -2 17 1 65 6 108 10 56 5 77 4 77 -5 0 -7 8 -9 20 -5 13 4
22 1 26 -9 9 -23 40 -20 61 7 18 23 51 25 66 3 5 -8 10 -7 16 3 7 10 42 17
123 22 97 7 115 6 125 -8 10 -13 17 -14 42 -3 16 6 34 9 39 6 17 -10 153 -15
147 -5 -12 18 21 19 99 4 43 -8 82 -13 85 -11 3 3 44 0 91 -5 56 -6 87 -15 93
-24 4 -8 15 -15 22 -15 13 0 15 58 15 408 l0 407 -72 22 c-40 11 -118 31 -173
43 -55 12 -122 28 -149 35 -26 7 -55 11 -64 8 -8 -4 -21 2 -30 13 -8 11 -16
15 -19 8 -2 -8 -19 -8 -56 -2 -34 7 -70 6 -103 -1 -83 -16 -146 11 -87 38 21
10 24 14 13 21 -13 8 -13 11 -1 22 11 10 14 10 18 1 3 -7 12 -13 20 -13 10 0
13 6 9 17 -4 9 -2 20 5 23 8 6 8 13 0 29 -14 24 -7 41 16 41 12 0 14 -7 9 -31
-8 -43 8 -69 44 -69 41 0 60 10 60 30 0 23 29 35 36 15 4 -8 13 -15 20 -15 8
0 19 -12 24 -26 10 -25 30 -25 30 1 0 9 6 12 15 9 18 -7 20 12 3 22 -7 5 -3
11 13 17 l24 10 -22 4 c-42 8 -23 18 37 21 32 1 76 10 96 18 l37 16 -34 29
c-31 26 -35 27 -56 13 -22 -14 -23 -13 -23 11 0 21 -5 25 -32 27 -18 1 -51 3
-73 4 -22 2 -64 -5 -94 -14 -41 -12 -56 -13 -59 -4 -2 7 -8 12 -14 12 -5 0
-24 11 -42 25 -34 25 -99 35 -111 15 -7 -11 41 -90 55 -90 14 0 6 -95 -9 -114
-12 -14 -16 -14 -42 0 -35 18 -36 27 -5 42 14 6 26 22 29 39 3 15 5 28 4 29
-10 6 -67 12 -64 6 3 -4 1 -17 -4 -29 -8 -23 -11 -23 -71 -1 -35 13 -36 28 -4
28 14 0 27 4 30 9 7 10 -40 24 -54 16 -5 -3 -11 -1 -15 5 -7 12 -90 3 -123
-13 -22 -10 -22 -12 -5 -18 13 -5 7 -8 -18 -8 -27 -1 -40 5 -51 21 -10 15 -26
22 -54 23 -21 2 -39 4 -39 5 0 1 -38 5 -141 14 -47 4 -68 11 -88 29 l-26 24
50 7 c64 9 80 15 80 32 0 19 95 46 125 34 17 -7 27 -5 36 6 8 10 9 18 3 22 -6
4 -13 15 -17 25 -4 11 -17 17 -36 17 -23 0 -29 -4 -25 -15 4 -10 0 -15 -15
-15 -23 0 -29 16 -9 22 21 7 -23 26 -67 29 -22 2 -46 10 -54 17 -10 10 -27 12
-55 8 -23 -4 -52 -7 -66 -8 -14 -1 -29 -7 -33 -13 -4 -5 -5 3 -1 18 6 26 5 28
-19 22 -33 -9 -49 21 -54 98 -1 32 -7 66 -12 76 -14 26 -15 131 -1 166 7 18 9
48 5 73 -5 33 -2 50 14 76 27 43 27 96 0 130 -19 24 -20 32 -11 65 7 20 16 84
22 142 11 107 22 182 65 449 35 217 42 432 21 580 -26 172 -45 207 -196 358
-98 97 -115 112 -128 112 -5 0 -17 9 -27 20 -10 12 -25 18 -33 15 -8 -3 -35 6
-59 20 -25 14 -56 25 -68 25 -12 0 -28 6 -34 14 -11 13 -7 13 26 4 21 -5 56
-19 77 -29 22 -10 41 -17 43 -16 1 2 -10 15 -25 29 -34 32 -157 100 -166 91
-3 -3 -6 -2 -6 3 0 6 -30 21 -67 34 -38 13 -82 34 -99 47 -17 12 -65 39 -107
58 -88 41 -86 30 -18 135 60 91 73 103 105 90 15 -5 42 -10 61 -10 29 0 42 11
113 90 79 89 94 117 149 265 16 45 10 103 -13 112 -16 6 -19 33 -4 33 6 0 10
5 10 11 0 6 11 33 25 61 14 27 25 58 25 69 0 11 11 41 24 67 13 26 27 61 30
78 4 18 16 40 28 50 27 25 50 71 59 119 6 32 3 47 -13 73 -18 29 -18 32 -3 32
14 0 15 3 5 15 -7 8 -9 15 -5 15 5 0 0 9 -10 20 -15 16 -15 20 -3 20 19 0 40
64 25 79 -7 7 -5 12 6 17 22 8 22 34 0 34 -15 0 -16 2 -3 10 12 8 11 10 -7 10
-14 0 -27 10 -36 29 -12 25 -12 29 2 39 12 7 6 9 -25 5 -49 -6 -67 11 -30 29
29 12 34 28 11 28 -14 0 -14 4 -1 34 11 26 11 36 3 40 -9 3 -8 8 3 16 12 8 9
9 -12 4 -22 -5 -28 -3 -28 11 0 11 -5 15 -15 11 -8 -3 -15 -1 -15 4 0 6 6 10
13 11 6 0 2 4 -11 9 -12 5 -29 7 -37 4 -9 -4 -33 9 -59 30 -25 20 -55 36 -69
36 -36 0 -57 10 -57 26 0 8 -9 14 -20 14 -12 0 -20 7 -20 16 0 13 -3 14 -14 5
-18 -15 -66 -4 -66 15 0 8 -3 14 -7 15 -44 4 -82 35 -83 67 0 17 -10 15 -26
-5 -13 -17 -13 -17 -14 0 0 18 -20 25 -20 7 0 -16 -27 -11 -34 6 -3 8 -3 26 0
38 4 18 -2 25 -30 39 -35 16 -36 16 -36 -3 0 -36 -33 -17 -42 25 -4 16 -8 12
-21 -19z m-491 -1048 c11 -18 12 -48 2 -48 -4 0 -8 7 -8 15 0 24 -17 17 -24
-10 -4 -14 -13 -25 -22 -25 -13 0 -11 7 7 40 24 42 33 48 45 28z m44 -62 c0
-2 -7 -7 -16 -10 -8 -3 -12 -2 -9 4 6 10 25 14 25 6z m25 -716 c3 -5 1 -10 -4
-10 -6 0 -11 5 -11 10 0 6 2 10 4 10 3 0 8 -4 11 -10z m-540 -40 c-3 -5 -14
-10 -23 -9 -14 0 -13 2 3 9 27 11 27 11 20 0z m-162 -7 c-7 -2 -19 -2 -25 0
-7 3 -2 5 12 5 14 0 19 -2 13 -5z m487 -17 c0 -11 -19 -15 -25 -6 -3 5 1 10 9
10 9 0 16 -2 16 -4z m805 -274 c11 -6 15 -12 8 -12 -6 0 -18 -3 -27 -6 -11 -4
-16 -1 -16 11 0 12 -7 15 -28 12 -18 -3 -29 0 -29 7 0 15 60 7 92 -12z m62
-13 c9 -9 34 -14 99 -21 13 -2 6 -38 -8 -38 -5 0 -7 4 -3 9 6 10 -25 31 -45
31 -7 0 -10 -7 -6 -15 3 -8 1 -15 -4 -15 -6 0 -10 4 -10 8 0 5 -11 15 -25 22
-14 7 -25 17 -25 22 0 11 14 10 27 -3z m-40 -29 c16 -6 30 -18 30 -27 0 -14
-2 -14 -12 1 -13 17 -41 23 -30 7 7 -12 -2 -17 -47 -25 -42 -8 -53 8 -13 18
14 4 25 13 25 21 0 18 7 18 47 5z m278 -59 c3 -5 1 -12 -5 -16 -5 -3 -10 1
-10 9 0 18 6 21 15 7z m-988 -17 c-3 -3 -12 -4 -19 -1 -8 3 -5 6 6 6 11 1 17
-2 13 -5z m583 -44 c0 -5 -4 -10 -10 -10 -5 0 -10 5 -10 10 0 6 5 10 10 10 6
0 10 -4 10 -10z m-680 -10 c0 -5 -5 -10 -11 -10 -5 0 -7 5 -4 10 3 6 8 10 11
10 2 0 4 -4 4 -10z m960 6 c0 -3 -4 -8 -10 -11 -5 -3 -10 -1 -10 4 0 6 5 11
10 11 6 0 10 -2 10 -4z m-3031 -44 c-12 -21 -33 -43 -46 -49 -22 -11 -23 -10
-12 5 18 23 72 82 76 82 2 0 -6 -17 -18 -38z m299 1 c25 -14 30 -23 27 -47 -3
-19 2 -34 12 -42 16 -11 16 -13 1 -28 -9 -9 -23 -13 -31 -10 -25 9 -30 -16 -8
-40 27 -29 27 -40 -2 -32 -17 4 -25 0 -32 -17 -9 -19 -17 -22 -60 -21 -103 2
-168 16 -193 41 -24 24 -24 24 -5 46 30 33 103 144 103 156 0 19 154 14 188
-6z m2202 13 c0 -3 -4 -8 -10 -11 -5 -3 -10 -1 -10 4 0 6 5 11 10 11 6 0 10
-2 10 -4z m590 -20 c0 -3 -4 -8 -10 -11 -5 -3 -10 -1 -10 4 0 6 5 11 10 11 6
0 10 -2 10 -4z m-1140 -26 c0 -5 -2 -10 -4 -10 -3 0 -8 5 -11 10 -3 6 -1 10 4
10 6 0 11 -4 11 -10z m154 4 c24 -9 19 -24 -8 -24 -13 0 -26 7 -30 15 -6 16
10 20 38 9z m386 -10 c0 -8 -4 -12 -10 -9 -5 3 -10 -1 -10 -9 0 -21 21 -31 31
-15 6 10 8 6 7 -13 -2 -25 -4 -26 -23 -14 -25 16 -31 42 -15 61 16 19 20 19
20 -1z m50 2 c0 -3 -4 -8 -10 -11 -5 -3 -10 -1 -10 4 0 6 5 11 10 11 6 0 10
-2 10 -4z m-2069 -43 c1 -16 1 -31 0 -35 0 -5 4 -8 9 -8 18 0 5 -25 -23 -44
-22 -15 -31 -16 -37 -7 -5 10 -9 9 -13 -3 -4 -9 -11 -16 -16 -16 -6 0 -3 20 7
45 13 36 21 45 41 45 23 0 23 1 8 18 -18 19 -14 32 10 32 7 0 14 -12 14 -27z
m29 20 c0 -5 -5 -15 -10 -23 -7 -12 -9 -10 -7 8 1 19 17 33 17 15z m2125 -3
c3 -5 1 -10 -4 -10 -6 0 -11 5 -11 10 0 6 2 10 4 10 3 0 8 -4 11 -10z m-3605
-50 c0 -5 -18 -10 -40 -10 -22 0 -40 5 -40 10 0 6 18 10 40 10 22 0 40 -4 40
-10z m4190 0 c-8 -5 -19 -10 -25 -10 -5 0 -3 5 5 10 8 5 20 10 25 10 6 0 3 -5
-5 -10z m-47 -17 c-7 -2 -19 -2 -25 0 -7 3 -2 5 12 5 14 0 19 -2 13 -5z m-523
-12 c0 -5 -7 -11 -15 -15 -15 -5 -20 5 -8 17 9 10 23 9 23 -2z m845 -1 c4 -6
-7 -10 -25 -10 -18 0 -29 4 -25 10 3 6 15 10 25 10 10 0 22 -4 25 -10z m-65
-10 c0 -5 -4 -10 -10 -10 -5 0 -10 5 -10 10 0 6 5 10 10 10 6 0 10 -4 10 -10z
m-2925 -40 c3 -5 1 -10 -4 -10 -6 0 -11 5 -11 10 0 6 2 10 4 10 3 0 8 -4 11
-10z m-507 -12 c-2 -6 -10 -14 -16 -16 -7 -2 -10 2 -6 12 7 18 28 22 22 4z
m362 -4 c0 -8 -4 -12 -10 -9 -5 3 -10 10 -10 16 0 5 5 9 10 9 6 0 10 -7 10
-16z m-866 -40 c4 -10 1 -14 -6 -12 -15 5 -23 28 -10 28 5 0 13 -7 16 -16z
m3746 -3 c0 -5 -7 -11 -15 -15 -9 -3 -15 0 -15 9 0 8 7 15 15 15 8 0 15 -4 15
-9z m-1015 -101 c3 -5 1 -10 -4 -10 -6 0 -11 5 -11 10 0 6 2 10 4 10 3 0 8 -4
11 -10z m35 -20 c0 -5 -2 -10 -4 -10 -3 0 -8 5 -11 10 -3 6 -1 10 4 10 6 0 11
-4 11 -10z m305 -48 c-3 -3 -11 0 -18 7 -9 10 -8 11 6 5 10 -3 15 -9 12 -12z
m-480 -112 c3 -5 2 -10 -4 -10 -5 0 -13 5 -16 10 -3 6 -2 10 4 10 5 0 13 -4
16 -10z m-1026 -187 c-24 -44 -29 -50 -29 -37 0 11 38 74 45 74 2 0 -5 -17
-16 -37z m83 -20 c21 -18 23 -33 6 -33 -14 0 -48 30 -48 42 0 13 22 9 42 -9z
m-172 -215 c-1 -26 -3 -30 -10 -16 -6 9 -7 23 -4 32 9 25 14 19 14 -16z
m-1547 -87 c-3 -11 -11 -22 -19 -25 -17 -6 -17 -1 -4 25 14 25 30 25 23 0z
m-736 -533 c-3 -8 -6 -5 -6 6 -1 11 2 17 5 13 3 -3 4 -12 1 -19z m4123 -2 c0
-2 -7 -7 -16 -10 -8 -3 -12 -2 -9 4 6 10 25 14 25 6z m-130 -80 c0 -2 -7 -9
-15 -16 -13 -11 -14 -10 -9 4 5 14 24 23 24 12z m1035 -726 c3 -5 1 -10 -4
-10 -6 0 -11 5 -11 10 0 6 2 10 4 10 3 0 8 -4 11 -10z m-5005 -10 c0 -5 -7
-10 -16 -10 -8 0 -12 5 -9 10 3 6 10 10 16 10 5 0 9 -4 9 -10z m2081 0 c33
-18 21 -28 -38 -36 -32 -4 -61 -12 -65 -18 -5 -7 -8 -6 -7 4 0 16 55 57 77 59
7 1 22 -4 33 -9z m2953 -26 c3 -8 2 -13 -3 -9 -5 3 -12 -1 -14 -7 -3 -7 -6 -3
-6 10 -1 25 14 30 23 6z m-2944 -40 c0 -7 -54 -53 -62 -54 -16 0 27 56 44 57
10 1 18 0 18 -3z m2902 -16 c-7 -7 -12 -8 -12 -2 0 14 12 26 19 19 2 -3 -1
-11 -7 -17z m-3012 2 c0 -5 -2 -10 -4 -10 -3 0 -8 5 -11 10 -3 6 -1 10 4 10 6
0 11 -4 11 -10z m2956 -142 c-9 -12 -16 -17 -16 -10 0 14 23 42 29 37 1 -2 -4
-14 -13 -27z m204 13 c0 -4 -5 -12 -11 -18 -18 -18 1 -36 32 -29 15 3 31 2 33
-3 3 -5 23 -17 43 -27 41 -20 45 -21 69 -23 9 0 14 -8 12 -18 -2 -11 -11 -17
-21 -15 -9 2 -17 -3 -17 -9 0 -7 -7 -4 -15 7 -14 19 -14 19 -15 -2 0 -11 -7
-29 -16 -40 -8 -10 -13 -14 -10 -8 3 6 -3 19 -13 28 -18 17 -20 17 -23 -5 -4
-32 -60 -46 -95 -24 -32 21 -73 12 -73 -15 0 -11 5 -20 10 -20 6 0 2 -8 -7
-18 -24 -26 -33 -18 -23 19 8 26 6 30 -8 27 -10 -2 -18 -15 -20 -33 l-4 -30
-14 34 c-8 18 -14 60 -14 93 0 51 2 59 16 54 8 -3 22 1 30 9 20 19 34 19 34 0
0 -8 7 -15 15 -15 11 0 14 7 10 28 -3 15 -3 22 1 15 9 -20 75 18 68 39 -4 13
-1 16 10 12 9 -3 16 -9 16 -13z m1040 -25 c0 -9 -30 -14 -35 -6 -4 6 3 10 14
10 12 0 21 -2 21 -4z m-760 -46 c0 -5 -9 -10 -19 -10 -11 0 -23 5 -26 10 -4 6
5 10 19 10 14 0 26 -4 26 -10z m-3328 -122 c-7 -7 -12 -8 -12 -2 0 6 3 14 7
17 3 4 9 5 12 2 2 -3 -1 -11 -7 -17z m3512 -9 c-3 -5 -10 -7 -15 -3 -5 3 -7
10 -3 15 3 5 10 7 15 3 5 -3 7 -10 3 -15z m153 -11 c-3 -8 -6 -5 -6 6 -1 11 2
17 5 13 3 -3 4 -12 1 -19z m-761 -69 c3 -6 17 -9 29 -6 24 4 86 -35 74 -47 -8
-8 -108 -10 -116 -2 -3 3 -7 14 -8 24 0 9 -4 23 -9 30 -4 7 -2 12 8 12 8 0 18
-5 22 -11z m42 -243 c2 -17 0 -26 -6 -22 -6 3 -13 -2 -15 -11 -3 -10 -5 2 -6
25 -1 49 22 56 27 8z m97 -6 c3 -5 1 -10 -4 -10 -6 0 -11 -7 -11 -15 0 -8 -4
-15 -10 -15 -5 0 -10 7 -10 15 0 8 -9 15 -21 15 -11 0 -17 5 -14 10 3 6 19 10
35 10 16 0 32 -4 35 -10z m195 -23 c0 -22 -9 -25 -45 -13 -53 18 -53 26 -2 26
33 0 47 -4 47 -13z m140 -57 c0 -5 -25 -10 -55 -10 -30 0 -55 5 -55 10 0 6 25
10 55 10 30 0 55 -4 55 -10z m-19 -43 c-10 -9 -11 -8 -5 6 3 10 9 15 12 12 3
-3 0 -11 -7 -18z m-233 -62 c-3 -3 -13 -2 -22 1 -14 5 -15 9 -4 15 13 8 36 -6
26 -16z m1357 -15 c3 -5 -1 -10 -9 -10 -9 0 -16 5 -16 10 0 6 4 10 9 10 6 0
13 -4 16 -10z m-1308 -111 c11 -10 10 -14 -6 -26 -23 -15 -66 -9 -92 14 -9 7
-24 11 -33 7 -9 -3 -16 -2 -16 3 0 5 -17 10 -37 11 -21 2 -40 5 -43 9 -10 11
213 -7 227 -18z m-9 -66 c4 -14 -25 -17 -54 -6 -16 6 -16 7 2 14 25 10 46 7
52 -8z m452 -87 c0 -2 -7 -9 -15 -16 -12 -10 -15 -10 -15 4 0 9 7 16 15 16 8
0 15 -2 15 -4z m-5620 -581 c0 -13 -45 -26 -71 -20 -46 10 -34 25 21 25 28 0
50 -2 50 -5z m5113 -83 c20 -22 4 -46 -22 -32 -9 5 -24 11 -35 14 -15 5 -16 9
-6 21 17 20 43 19 63 -3z m157 -27 c0 -17 -2 -18 -24 -9 -23 9 -20 24 4 24 11
0 20 -7 20 -15z m100 1 c0 -3 -4 -8 -10 -11 -5 -3 -10 -1 -10 4 0 6 5 11 10
11 6 0 10 -2 10 -4z"/>
<path d="M1965 4530 c3 -5 14 -10 23 -10 15 0 15 2 2 10 -20 13 -33 13 -25 0z"/>
<path d="M1990 4459 c0 -5 5 -7 10 -4 6 3 10 8 10 11 0 2 -4 4 -10 4 -5 0 -10
-5 -10 -11z"/>
<path d="M1925 4330 c-3 -6 1 -7 9 -4 18 7 21 14 7 14 -6 0 -13 -4 -16 -10z"/>
<path d="M3615 6000 c3 -5 8 -10 11 -10 2 0 4 5 4 10 0 6 -5 10 -11 10 -5 0
-7 -4 -4 -10z"/>
<path d="M3555 5684 c-10 -19 -20 -45 -20 -57 -1 -11 -7 -23 -13 -25 -21 -7
-13 -39 13 -56 16 -10 25 -26 25 -41 0 -14 5 -25 10 -25 6 0 10 3 10 8 0 4 3
17 6 30 5 16 2 22 -11 22 -12 0 -15 5 -11 16 3 9 6 19 7 22 0 4 4 -2 8 -13 7
-16 11 -8 21 38 10 44 11 60 2 69 -7 7 -12 20 -12 30 0 28 -14 21 -35 -18z"/>
<path d="M3170 5050 c-14 -11 -20 -20 -15 -19 13 0 50 28 44 33 -2 3 -15 -4
-29 -14z"/>
<path d="M1426 4371 c-3 -5 1 -11 9 -15 8 -3 15 -1 15 4 0 13 -18 22 -24 11z"/>
<path d="M5830 2105 c12 -15 30 -12 30 6 0 5 -10 9 -21 9 -18 0 -19 -2 -9 -15z"/>
<path d="M6235 1790 c3 -5 8 -10 11 -10 2 0 4 5 4 10 0 6 -5 10 -11 10 -5 0
-7 -4 -4 -10z"/>
<path d="M5680 670 c0 -5 5 -10 10 -10 6 0 10 5 10 10 0 6 -4 10 -10 10 -5 0
-10 -4 -10 -10z"/>
<path d="M5718 673 c7 -3 16 -2 19 1 4 3 -2 6 -13 5 -11 0 -14 -3 -6 -6z"/>
<path d="M5703 459 c11 -7 23 -7 35 0 14 9 11 10 -18 10 -29 0 -32 -1 -17 -10z"/>
<path d="M6287 224 c-13 -13 -7 -24 14 -24 11 0 19 5 17 12 -5 14 -22 21 -31
12z"/>
<path d="M6416 205 c4 -17 2 -25 -7 -26 -8 -1 -26 -2 -41 -3 -15 0 -34 -10
-43 -21 -14 -19 -16 -19 -29 -2 -16 21 -26 22 -26 2 0 -9 -11 -26 -24 -39
l-25 -22 30 -18 c34 -20 123 -23 207 -7 29 6 58 10 64 8 7 -1 14 6 16 16 2 12
-3 17 -17 17 -23 0 -27 10 -10 27 19 19 2 41 -35 49 -26 4 -36 11 -36 25 0 11
-7 19 -15 19 -11 0 -14 -7 -9 -25z m9 -85 c4 -6 -9 -10 -32 -10 -28 0 -34 3
-23 10 20 13 47 13 55 0z"/>
<path d="M6485 220 c-3 -6 5 -10 19 -10 14 0 28 5 31 10 3 6 -5 10 -19 10 -14
0 -28 -4 -31 -10z"/>
<path d="M6830 210 c-25 -5 -27 -14 -22 -72 3 -26 21 -22 32 7 9 24 44 45 76
45 20 0 17 -36 -3 -45 -14 -6 -9 -10 22 -20 49 -15 65 -3 65 50 0 34 -2 37
-25 33 -14 -3 -28 -2 -31 3 -5 9 -71 8 -114 -1z"/>
<path d="M5985 190 c-22 -24 -20 -27 20 -32 23 -2 30 1 33 16 4 16 -12 35 -29
36 -3 0 -14 -9 -24 -20z"/>
<path d="M6207 193 c-11 -11 -17 -13 -17 -5 0 7 -4 12 -9 12 -14 0 -10 -41 6
-65 12 -18 13 -18 13 8 0 20 5 27 20 27 13 0 20 7 20 20 0 25 -10 25 -33 3z"/>
<path d="M6670 200 c8 -5 24 -9 35 -9 l20 0 -20 9 c-11 5 -27 9 -35 9 -13 1
-13 0 0 -9z"/>
<path d="M5481 184 c0 -11 3 -14 6 -6 3 7 2 16 -1 19 -3 4 -6 -2 -5 -13z"/>
<path d="M5640 160 c0 -11 5 -20 10 -20 6 0 10 9 10 20 0 11 -4 20 -10 20 -5
0 -10 -9 -10 -20z"/>
<path d="M5685 170 c-8 -13 4 -32 16 -25 12 8 12 35 0 35 -6 0 -13 -4 -16 -10z"/>
<path d="M5755 169 c-11 -30 6 -89 25 -89 17 0 22 41 7 58 -9 9 -16 21 -15 25
0 16 -12 20 -17 6z"/>
<path d="M5916 173 c-12 -12 -5 -23 14 -23 11 0 20 4 20 9 0 11 -26 22 -34 14z"/>
<path d="M6551 162 c-15 -28 -14 -32 7 -32 32 0 40 14 21 33 -17 18 -18 18
-28 -1z"/>
<path d="M6090 160 c0 -15 27 -23 48 -15 16 7 15 8 -3 15 -28 12 -45 12 -45 0z"/>
<path d="M5546 153 c-11 -11 -6 -23 9 -23 8 0 15 4 15 9 0 13 -16 22 -24 14z"/>
<path d="M6680 105 c0 -8 -4 -15 -10 -15 -5 0 -10 -11 -10 -25 0 -17 7 -26 23
-30 25 -7 71 7 82 25 11 18 0 22 -29 9 -29 -13 -46 -5 -28 13 8 8 9 15 1 25
-15 17 -29 17 -29 -2z"/>
<path d="M6020 40 c0 -5 7 -10 16 -10 8 0 12 5 9 10 -3 6 -10 10 -16 10 -5 0
-9 -4 -9 -10z"/>
<path d="M6470 15 c0 -8 7 -15 15 -15 8 0 15 4 15 9 0 5 -7 11 -15 15 -9 3
-15 0 -15 -9z"/>
</g>
</svg>
